<?xml version="1.0" encoding="UTF-8"?>
<svg width="225px" height="190px" viewBox="0 0 225 190" version="1.1" xmlns="http://www.w3.org/2000/svg" xmlns:xlink="http://www.w3.org/1999/xlink">
    <!-- Generator: Sketch 51.3 (57544) - http://www.bohemiancoding.com/sketch -->
    <title>Artboard</title>
    <desc>Created with Sketch.</desc>
    <defs></defs>
    <g id="Artboard" stroke="none" stroke-width="1" fill="none" fill-rule="evenodd">
        <g id="Aim" transform="translate(73.000000, 55.000000)" fill="#FFFFFF" fill-rule="nonzero">
            <path d="M38.9189111,67.0058002 C24.8520854,66.4524398 13.5475605,55.147915 12.9941998,41.0810894 L0,41.0810811 L0,38.9189189 L12.9941994,38.9189189 C13.5475605,24.852085 24.8520854,13.5475602 38.9189111,12.9941998 L38.9189189,0 L41.0810811,0 L41.0810811,12.9941994 C55.1479146,13.5475602 66.4524395,24.852085 67.0058002,38.9189106 L80,38.9189189 L80,41.0810811 L67.0058006,41.0810811 C66.4524395,55.147915 55.1479146,66.4524398 41.0810889,67.0058002 L41.0810811,80 L38.9189189,80 L38.9189189,67.0058006 Z M38.9189189,58.3471096 L38.9189189,47.5675676 L41.0810811,47.5675676 L41.0810811,58.3471096 C50.3702665,57.8082726 57.8082726,50.3702665 58.3471096,41.0810811 L47.5675676,41.0810811 L47.5675676,38.9189189 L58.3471096,38.9189189 C57.8082726,29.6297335 50.3702665,22.1917274 41.0810811,21.6528904 L41.0810811,32.4324324 L38.9189189,32.4324324 L38.9189189,21.6528904 C29.6297335,22.1917274 22.1917274,29.6297335 21.6528904,38.9189189 L32.4324324,38.9189189 L32.4324324,41.0810811 L21.6528904,41.0810811 C22.1917274,50.3702665 29.6297335,57.8082726 38.9189189,58.3471096 Z M41.0810811,64.8417855 C53.9535706,64.2911127 64.2911127,53.9535706 64.8417855,41.0810811 L60.5125793,41.0810811 C59.9689673,51.5647606 51.5647606,59.9689673 41.0810811,60.5125793 L41.0810811,64.8417855 Z M38.9189189,64.8417855 L38.9189189,60.5125793 C28.4352394,59.9689673 20.0310327,51.5647606 19.4874207,41.0810811 L15.1582145,41.0810811 C15.7088873,53.9535706 26.0464294,64.2911127 38.9189189,64.8417855 Z M41.0810811,15.1582145 L41.0810811,19.4874207 C51.5647606,20.0310327 59.9689673,28.4352394 60.5125793,38.9189189 L64.8417855,38.9189189 C64.2911127,26.0464294 53.9535706,15.7088873 41.0810811,15.1582145 Z M38.9189189,15.1582145 C26.0464294,15.7088873 15.7088873,26.0464294 15.1582145,38.9189189 L19.4874207,38.9189189 C20.0310327,28.4352394 28.4352394,20.0310327 38.9189189,19.4874207 L38.9189189,15.1582145 Z" id="Combined-Shape"></path>
        </g>
    </g>
</svg>