<?xml version="1.0" encoding="UTF-8"?>
<svg width="225px" height="190px" viewBox="0 0 225 190" version="1.1" xmlns="http://www.w3.org/2000/svg" xmlns:xlink="http://www.w3.org/1999/xlink">
    <!-- Generator: Sketch 51.3 (57544) - http://www.bohemiancoding.com/sketch -->
    <title>Artboard</title>
    <desc>Created with Sketch.</desc>
    <defs></defs>
    <g id="Artboard" stroke="none" stroke-width="1" fill="none" fill-rule="evenodd">
        <path d="M57.4764453,165.489706 L57.4764453,162.209492 C58.0778178,164.560312 58.2691637,164.423636 58.0504827,161.799465 C57.8318018,159.175294 58.2418285,156.742468 59.280563,154.500989 C60.4833081,151.986158 61.2486914,150.455391 61.5767128,149.908689 C61.9047342,149.361987 61.9047342,149.088636 61.5767128,149.088636 L59.280563,148.186577 C58.6791904,148.241247 58.0778178,148.022566 57.4764453,147.530534 C56.8750727,147.038502 56.4650459,146.847156 56.246365,146.956496 L55.3443062,146.874491 C54.0868908,146.983832 53.4035129,146.683145 53.2941724,145.972432 L50.6700012,145.808422 L50.0139584,145.070373 L49.2759102,145.070373 C49.1665697,145.453065 48.8385483,145.562405 48.291846,145.398395 C48.1825055,145.890427 47.9364895,146.136443 47.5537978,146.136443 C47.1711062,146.136443 46.8704199,145.972432 46.651739,145.644411 L45.5036641,147.038502 C45.6676748,147.421193 45.5856694,147.749215 45.257648,148.022566 L43.6995464,149.088636 C43.8635571,149.963359 43.371525,150.510062 42.22345,150.728743 C42.22345,150.728743 42.1141096,151.138769 41.8954286,151.958823 L41.8954286,152.53286 C42.442131,152.36885 42.8248226,152.724206 43.0435035,153.59893 C44.082238,153.489589 45.0936373,153.516925 46.0777015,153.680935 C47.0617657,153.844946 47.9091544,155.020356 48.6198674,157.207165 L48.6198674,158.929278 C48.2371758,159.257299 46.8430848,159.58532 44.4375945,159.913342 L41.3213912,159.913342 C39.8999651,160.132023 38.3965337,159.940677 36.8110969,159.339304 C36.3190648,158.628591 35.5810166,158.2459 34.5969524,158.191229 L32.628824,156.469117 C32.7381645,155.157032 32.3281377,154.200302 31.3987437,153.59893 L31.3987437,149.908689 L31.8087705,149.580668 L32.1367919,143.348261 L29.2666046,141.95417 L29.2666046,138.509945 L29.2666046,136.705828 L28.6105618,136.705828 L28.6105618,133.097592 L28.9385832,130.637432 C28.9385832,130.637432 24.920321,127.029196 23.7722461,125.143073 C22.6241712,123.25695 21.7221124,120.714784 21.4760963,119.566709 C21.3120856,118.801326 21.3667558,117.461905 21.640107,115.548447 L21.4760963,113.744329 C21.1480749,110.218099 21.4760963,106.363848 21.9681284,105.6258 C22.2961498,105.133768 22.4601605,104.341049 22.4601605,103.247645 C22.0227987,101.880889 21.9407933,100.541468 22.2141445,99.2293823 L22.2961498,95.867163 C22.569501,95.4844713 22.569501,95.1291148 22.2961498,94.8010934 L22.2961498,92.5049436 L21.8041177,92.2589275 L21.8041177,91.7668954 L22.2141445,91.2748633 L22.4601605,90.7828312 L22.4601605,88.9787135 L22.4601605,86.6825637 L22.7881819,82.9103176 L22.7881819,82.3362801 L22.4601605,80.2861463 L22.4601605,79.3840875 L20.2460161,77.0879377 L20,69.9534721 L21.4760963,68.2313598 L21.8041177,67.3293009 L22.2141445,66.181226 L22.7881819,64.541119 L23.1982087,63.5570548 L23.7722461,62.901012 L23.7722461,61.9989531 L24.7563103,59.3747819 L27.6264976,53.0603699 C28.0638595,52.0763057 28.9659183,50.8188903 30.3326742,49.2881238 C30.6606956,49.1787833 31.6174247,48.3587298 33.2028615,46.8279632 C33.2028615,46.8279632 33.5035477,46.6912877 34.1049203,46.4179365 C34.9249738,46.3632663 35.7450273,46.0899151 36.5650808,45.597883 L37.7951611,44.9418402 C38.9979062,43.9031057 39.7632895,43.0830522 40.0913109,42.4816797 C40.4193323,41.8803071 40.7746888,41.5796208 41.1573805,41.5796208 L42.4694661,41.5796208 L42.8794928,41.2515994 L44.6016052,41.2515994 L45.257648,40.8415726 L46.9797604,40.5135512 L47.3077818,40.0215191 L50.4239851,37.3153426 L50.6700012,36.6592998 L52.966151,34.2811446 C53.676864,34.4998255 54.3875771,34.5271606 55.0982901,34.3631499 C56.7930673,29.3334884 58.2691637,26.0532744 59.526579,24.5225079 C62.2054205,20.586251 66.8250553,19.2194952 73.3854833,20.4222403 C82.5154124,23.3197627 87.0257066,29.0601373 86.9163662,37.643364 C86.7523555,38.6274282 86.8343608,39.8301733 87.1623822,41.2515994 C88.5291381,42.0169827 89.2671862,42.9737118 89.3765267,44.1217867 C89.4858672,45.8165639 88.283122,46.8006281 85.7682913,47.0739793 L83.9641735,47.0739793 C84.5655461,48.9327672 84.9482378,50.1081773 85.1122485,50.6002094 C85.2762592,51.0922415 85.1942538,51.7209492 84.8662324,52.4863324 L86.0963127,51.4202629 C87.4630685,50.4361987 88.3651274,49.7528208 88.8024892,49.3701291 C89.2398511,48.9874375 89.7865534,48.9601024 90.4425963,49.2881238 L91.3446551,50.0261719 L92.246714,50.0261719 C92.1920437,50.4635338 92.3833896,50.6548796 92.8207514,50.6002094 C93.4767942,50.518204 95.8549494,49.3701291 95.4449226,49.1241131 C95.1715715,48.9601024 95.1715715,48.7140863 95.4449226,48.3860649 L96.2649762,47.7300221 L98.2331046,47.7300221 L98.2331046,47.0739793 L114.142143,47.0739793 L114.306153,47.8940328 L118.898453,47.8940328 L119.554496,47.23799 L122.260672,47.23799 L122.99872,47.7300221 L125.540886,47.5660114 L132.18332,47.6480168 L132.675352,47.0739793 L133.4134,47.0739793 L133.823427,47.6480168 L200.985809,47.9760382 L201.887868,46.9099686 L202.3799,47.9760382 L204.594044,47.9760382 L204.594044,49.1241131 L204.594044,50.0261719 L186.798883,50.3541933 L199.427707,50.4361987 L199.427707,51.8302896 L196.803536,51.6662789 L186.634873,51.6662789 C186.634873,51.8849599 186.416192,51.9943003 185.97883,51.9943003 C185.541468,51.9943003 185.240782,51.8849599 185.076771,51.6662789 L150.634524,51.6662789 C150.470513,53.087705 149.459114,53.8530883 147.600326,53.9624288 L144.812144,54.2904502 C144.866814,54.8371525 144.648133,55.3291846 144.156101,55.7665465 C143.500058,56.4772595 143.008026,57.0239618 142.680005,57.4066535 C142.351983,57.7893451 141.941956,57.7893451 141.449924,57.4066535 L139.645807,56.9966267 L137.923694,57.8986856 C137.923694,57.8986856 137.458997,58.2813772 136.529603,59.0467605 L135.463534,59.2107712 C135.736885,59.4841224 135.600209,59.7574735 135.053507,60.0308247 L132.34733,60.0308247 L130.297197,60.0308247 L126.688961,60.8508782 C126.688961,60.8508782 126.634291,61.2335698 126.524951,61.9989531 C126.47028,63.6937304 126.114924,64.6777946 125.458881,64.9511457 L124.474817,66.181226 C124.474817,67.11062 124.092125,67.8760033 123.326742,68.4773758 L120.784576,70.1994882 L118.570432,72.4136327 L117.996394,73.1516808 C117.996394,73.6983832 117.586367,74.2450855 116.766314,74.7917878 C115.508898,76.0492032 114.743515,76.8965918 114.470164,77.3339537 C114.196813,77.7713156 113.568105,78.2360126 112.584041,78.7280447 L108.8938,80.6141677 C108.456438,80.9968594 107.691055,81.133535 106.59765,81.0241945 C104.848203,81.133535 103.618123,81.2975457 102.90741,81.5162266 C102.196697,81.7349075 101.540654,81.7349075 100.939281,81.5162266 L99.8732116,80.8601838 C99.3265092,80.9695243 98.6431313,80.8601838 97.8230778,80.5321624 L95.4449226,79.7941142 L92.8207514,79.1380714 C92.8207514,79.1380714 90.3332558,78.3726881 85.3582645,76.8419216 L83.3901361,76.4318948 L82.6520879,77.8259858 L81.5860184,78.81005 L80.4379435,80.2861463 L79.863906,81.7622426 L79.0438525,82.9103176 C78.934512,84.2224032 76.8843783,87.0105851 72.8934512,91.2748633 C74.8069094,89.9627777 77.8137722,89.3887403 81.9140398,89.552751 C83.6634873,89.4980807 85.5769454,90.8375015 87.6544143,93.5710131 C88.0917762,94.0630452 88.3377923,95.5118064 88.3924625,97.9172967 C88.9391648,98.7373502 88.8298244,100.404792 88.0644411,102.919623 L87.2443876,107.101896 L85.6862859,113.088287 L84.8662324,117.516576 L83.0621147,126.127137 C85.8502966,128.587298 88.5291381,130.664767 91.0986391,132.359544 C94.9528905,134.90171 100.939281,142.528208 103.235431,144.906363 C104.766198,146.491799 104.930208,149.389322 103.727463,153.59893 C103.07142,157.043155 102.989415,155.649064 101.431313,157.371176 C100.392579,158.519251 98.1510992,159.257299 94.7068745,159.58532 L86.5063394,159.339304 L86.7523555,159.749331 C87.572409,160.514714 88.2557869,160.897406 88.8024892,160.897406 C89.3491916,160.897406 90.1145749,161.198092 91.0986391,161.799465 C93.4767942,162.209492 94.0508317,162.045481 95.2809119,162.701524 C96.1009655,163.138886 96.5109922,164.341631 96.5109922,166.309759 C96.5109922,166.309759 96.702338,166.391765 97.0850297,166.555775 C97.4130511,167.59451 97.0576945,168.332558 96.0189601,168.76992 C96.0189601,168.76992 91.9186926,170 91.0986391,169.589973 C90.5519367,169.316622 89.9778993,169.316622 89.3765267,169.589973 C86.2056531,170.136676 81.8046993,170.136676 76.1736652,169.589973 C74.9709201,169.644643 74.1508666,169.562638 73.7135047,169.343957 C73.2761428,169.125276 72.7021054,168.687914 71.9913923,168.031872 L69.4492265,167.047807 C69.339886,167.047807 68.6018379,167.293823 67.235082,167.785856 C65.1029429,168.551239 63.3808305,168.359893 62.0687449,167.211818 C60.4286379,167.485169 58.8978714,166.911132 57.4764453,165.489706 Z M95.4449226,60.8508782 C96.0462952,60.8508782 96.4016517,61.0148889 96.5109922,61.3429103 C96.6203327,61.6709317 97.0850297,61.4522508 97.9050832,60.6868675 L100.037222,60.5228568 C99.1078283,59.7028033 98.5884611,58.9647551 98.4791206,58.3087123 C98.096429,57.9260207 97.6590671,57.7346749 97.167035,57.7346749 C96.5656624,59.156101 95.9642899,59.9761545 95.3629173,60.1948354 L95.3629173,60.6048622 L95.4449226,60.8508782 Z M99.5451902,58.7187391 C99.8732116,59.5387926 100.283238,60.0034896 100.77527,60.1128301 C101.267303,60.2221705 102.278702,60.2221705 103.809468,60.1128301 C104.793533,59.7301384 105.230894,59.0467605 105.121554,58.0626963 C104.902873,57.1879725 104.656857,56.6959404 104.383506,56.5866 L103.891474,56.5866 C104.219495,57.1333023 104.301501,57.5433291 104.13749,57.8166802 C103.891474,58.226707 103.235431,59.0467605 102.005351,58.9647551 C101.185297,58.9100849 100.365244,58.8280796 99.5451902,58.7187391 Z M104.547517,60.3588461 L105.695591,60.3588461 C107.007677,59.5387926 108.265092,59.1014307 109.467838,59.0467605 L110.287891,58.8827498 L111.435966,57.8986856 C111.763987,57.6800047 112.748052,57.515994 114.388159,57.4066535 L115.372223,57.2426428 L117.01233,56.2585786 L108.319763,56.4225893 C108.319763,56.9146214 107.827731,57.1879725 106.843666,57.2426428 C106.187624,57.4066535 105.804932,57.8986856 105.695591,58.7187391 C105.586251,59.5387926 105.203559,60.0854949 104.547517,60.3588461 Z" id="Combined-Shape" fill="#FFFFFF" fill-rule="nonzero"></path>
    </g>
</svg>