<?xml version="1.0" encoding="UTF-8"?>
<svg width="225px" height="190px" viewBox="0 0 225 190" version="1.1" xmlns="http://www.w3.org/2000/svg" xmlns:xlink="http://www.w3.org/1999/xlink">
    <!-- Generator: Sketch 51.3 (57544) - http://www.bohemiancoding.com/sketch -->
    <title>Artboard</title>
    <desc>Created with Sketch.</desc>
    <defs></defs>
    <g id="Artboard" stroke="none" stroke-width="1" fill="none" fill-rule="evenodd">
        <g id="Virdhi-Logo1" transform="translate(60.000000, 35.000000)" fill="#FFFFFF" fill-rule="nonzero">
            <path d="M82.46598,41.9530648 L53.2208694,92.8141266 C52.712259,93.6052986 52.203648,93.4922742 51.6950376,92.4750528 L39.5731512,71.5372494 C39.1775651,70.8025896 39.2340775,70.2657228 39.742688,69.926649 C42.9638886,67.9487184 45.0830994,66.6907548 46.1003208,66.1527582 C47.1175422,65.614761 47.852202,65.7142224 48.3043002,66.451143 L51.8645742,72.2153964 L67.1228928,45.9371813 C67.5749916,45.0894969 68.1966264,44.8634477 68.9877984,45.2590338 C69.778971,45.6546199 69.863739,46.3327673 69.2421042,47.2934763 L52.797027,75.5213658 C52.0623672,76.4255622 51.327708,76.36905 50.5930482,75.3518286 L46.6936998,68.9094276 L42.5400462,71.3677122 L52.5427218,88.575705 L79.1600112,42.8007491 L59.4089652,42.8007491 C59.4089652,46.1914866 59.4089652,48.2541852 59.4089652,48.988845 C59.4089652,49.7235048 59.0698914,50.175603 58.3917438,50.3451402 C51.2711952,50.3451402 47.456616,50.3451402 46.948005,50.3451402 C46.4393946,50.3451402 46.156833,49.9495542 46.1003208,49.1583816 L46.1003208,42.8007491 L25.8406645,42.8007491 L35.6738031,60.2630472 L40.2512988,57.4656888 L34.1479712,47.039171 C33.7523852,46.1914866 33.8936659,45.5981075 34.5718135,45.2590338 C35.2499609,44.9199601 35.84334,45.0329846 36.3519506,45.5981075 C40.307811,52.4926068 42.5683026,56.335443 43.1334258,57.126615 C43.6985484,57.917787 43.585524,58.5676782 42.794352,59.0762892 C39.347102,61.3367808 37.1431227,62.7213318 36.1824137,63.2299422 C35.2217048,63.7385532 34.4305327,63.5407602 33.8088975,62.6365632 C26.4057874,49.3561746 22.449927,42.2921385 21.9413164,41.4444542 C21.4327058,40.5967698 21.6304988,40.1729276 22.5346955,40.1729276 L47.3718474,40.0881592 C48.1630194,40.0316469 48.5303496,40.4554891 48.4738368,41.3596857 L48.4738368,47.63255 L56.9506806,47.5477816 C56.9506806,45.1742654 56.9506806,43.3093598 56.9506806,41.9530648 C56.9506806,40.5967698 57.5440596,39.9468784 58.7308176,40.0033907 C58.7308176,40.0033907 66.2469528,40.0316469 81.279222,40.0881592 C82.9180782,40.0316469 83.3136642,40.6532821 82.46598,41.9530648 Z M0,55.9127514 C0,39.9395973 0,31.6174496 0,30.9463087 C0,30.2751678 0.33557046,29.671141 1.00671138,29.1342282 C33.4899329,10.3959731 50.1342282,0.79865772 50.9395974,0.34228188 C51.7449666,-0.11409396 52.6174494,-0.11409396 53.557047,0.34228188 C86.5771812,19.3221476 103.355705,28.9865772 103.892617,29.3355704 C104.42953,29.6845637 104.697986,30.3557047 104.697986,31.3489933 L104.697986,55.9127514 C99.3288588,54.3020136 96.6442956,51.6410334 96.6442956,47.9298122 C96.6442956,40.9045259 96.6442956,36.9883245 96.6442956,36.181208 C96.6442956,35.1073826 96.241611,34.3691275 95.4362418,33.966443 C68.8590606,18.7181208 55.033557,10.7986577 53.9597316,10.2080537 C52.8859062,9.61744968 51.8120808,9.61744968 50.7382548,10.2080537 C23.3557047,25.8590604 9.39597318,33.8456376 8.85906042,34.1677852 C8.32214766,34.4899329 8.05369128,34.8926174 8.05369128,35.3758389 C8.05369128,39.9395973 8.05369128,44.1006712 8.05369128,47.8590604 C8.05369128,51.6174498 5.36912754,54.3020136 0,55.9127514 Z M8.05369128,64.0268454 L8.05369128,84.6241608 C8.05369128,85.1073828 8.32214766,85.5100674 8.85906042,85.8322146 C9.39597318,86.1543624 23.3557047,94.1409396 50.7382548,109.791946 C51.8120808,110.38255 52.8859062,110.38255 53.9597316,109.791946 C55.033557,109.201342 68.8590606,101.281879 95.4362418,86.0335572 C96.241611,85.6308726 96.6442956,84.8926176 96.6442956,83.8187922 C96.6442956,83.280714 96.6442956,76.683399 96.6442956,64.0268454 C102.013423,65.6375838 104.697986,68.3221476 104.697986,72.0805368 C104.697986,75.838926 104.697986,81.3624162 104.697986,88.6510068 C104.697986,89.6442954 104.42953,90.3154362 103.892617,90.6644298 C103.355705,91.0134228 86.5771812,100.677853 53.557047,119.657718 C52.6174494,120.114094 51.7449666,120.114094 50.9395974,119.657718 C50.1342282,119.201342 33.4899329,109.604027 1.00671138,90.8657718 C0.33557046,90.3288588 0,89.7248322 0,89.0536914 C0,88.5056514 0,82.855869 0,72.1044534 C0,68.3301198 2.68456374,65.6375838 8.05369128,64.0268454 Z" id="Combined-Shape"></path>
        </g>
    </g>
</svg>